<?xml version="1.0" encoding="UTF-8"?>
<svg id="Capa_1" data-name="Capa 1" xmlns="http://www.w3.org/2000/svg" viewBox="0 0 300 300">
  <defs>
    <style>
      .cls-1 {
        fill: #ff652c;
      }
    </style>
  </defs>
  <path class="cls-1" d="m229.19,167.4c-.67,1.06-1.48,1.84-1.3,1.38-1.19,2.29-1.56,2.08-1.31,2.69-.8,1.46-2.17,2.61-1.2,1.01l-2.65,3.93,1.81-2.18c-.12.89-2.9,3.48-3.04,4.52l3.14-4.07-.04.3c.59-1.02,2.05-2.77,2.59-3.36-.02.14.13.15-.42.88.48-.61.85-1.1,1.13-1.49.26-.41.43-.72.55-.96.24-.48.25-.69.24-.87-.02-.37-.13-.63,1.25-2.8-.17.27-.4.6-.75,1.03Z"/>
  <path class="cls-1" d="m233.08,163.64c.23-.71.42-1.45.62-2.18l1.96-3.08c-.15-.13,1.04-2.5-.01-1.03-.15.32-.45.95-.74,1.42-.16-.56,2.23-4.29,1.31-3.57-1.3,2.55-1.63,2.87-2.21,4.57-.68,1.13-1.28,2.09-1.8,2.9-.56.78-1.07,1.38-1.47,1.85-.38.68-.23.91-.74,1.76.12-.18.23-.35.36-.57l.59.27c.35-.76.85-1.37,1.35-2.14l-1.78,3.95c1.26-.82,3.41-4.46,4.38-5.85-1.52,1.53.62-1.57-1.83,1.71Z"/>
  <path class="cls-1" d="m229.99,166.28s-.04.06-.06.09c.02-.03.04-.06.06-.09Z"/>
  <path class="cls-1" d="m70.58,128.84c.13.86.35,1.07.45,1.18-.31-1.59-.5-3.2-.76-4.79-.2-1.6-.27-3.22-.41-4.82-.14.3-.14,3.12-.38,1.25-.1.85.18,3.39.53,3.72-.12-.22-.25-.45-.35-.67.65,2.18.25,3.8-.16,2.37l.03.19c.38,1,.68,2.01,1.13,2.98l1.31,2.9c-.22-1.12-.42-1.52-.65-1.98-.11-.23-.23-.47-.37-.83-.14-.35-.28-.82-.37-1.5Z"/>
  <path class="cls-1" d="m208.22,186.37c-.92.91-1,1.06-.85,1,.32-.34.61-.68.85-1Z"/>
  <path class="cls-1" d="m72.57,134.48c.27.6.62,1.17.93,1.75-.32-.71-.7-1.31-.93-1.75Z"/>
  <path class="cls-1" d="m64.45,121.66s-.04-.02-.07.03l.27.93s0-.02,0-.02c-.07-.34-.14-.65-.21-.94Z"/>
  <path class="cls-1" d="m94.64,172.26c.14.16.25.3.42.49-.15-.18-.28-.34-.42-.49Z"/>
  <path class="cls-1" d="m67.43,92.82c-.51,1.56-.97,3.14-1.35,4.73.02-.68-.63,1.6-.53.55-.09.36-.51,2.09-.28,1.65l.27-.97c-.11,1.32,0,1.61.05,2.11.02.25.03.54,0,1.05-.02.25-.05.56-.08.94-.02.19-.04.41-.06.64.02,0,.03.11.03.17,0,0,0,0,0,.01h0s.06-.08.08-.12c0-.02.02-.04.03-.05,0,0,.04-.13.05-.18.07-.29.14-.55.21-.8.12-.49.21-.92.28-1.31.13-.78.18-1.43.26-2.13.1-.46.2-.85.3-1.23.18-1.35.4-2.7.68-4.05,0-.33.03-.66.05-.99Z"/>
  <path class="cls-1" d="m162.35,228.12v.06s.01-.05,0-.06Z"/>
  <path class="cls-1" d="m162.29,228.44l.04-.25c-.13.22-.79.86-.04.25Z"/>
  <path class="cls-1" d="m72.09,133.87c.11.03.28.25.49.61l-.61-1.34c.03.2.08.47.12.73Z"/>
  <path class="cls-1" d="m70.23,130.89c-.34-1.19-.48-2.41-.71-3.62l-.47-1.31c.15.7.31,1.45.49,2.27.17.82.35,1.72.69,2.66Z"/>
  <path class="cls-1" d="m91.34,167.55c4.72,5.89-1.64-1.09.38,1.73,1.36,1.61,2.04,2.01,2.92,2.99-3.89-4.56,1.26.03-2.58-4.6.95.36,3.12,3.05,4.26,4.74,1.03,2.14-1.53-1.35-2.25-1.45,1.56,1.85,1.36,1.46,2.22,2.08.28.38.58.78.83,1.04.24.28.6.61.89.91.66.62,1.34,1.22,1.99,1.8,1.31,1.17,2.48,2.25,3.08,3.29,2.12,1.8,2.16,1.5,3.52,2.37.6-.19-2.87-3-3.31-4.01.12.18.36.53.22.5l-1.65-1.71c1.5,1.69-.62.18-1.49-.62-.64-.6-1.82-1.77-1.55-1.71l.98.82c-.53-.65-1.22-1.22-1.86-1.78-.32-.3-.54-.46-.86-.87-.3-.36-.57-.74-.79-1.14.04-.15.5.35.62.38-1.52-1.34-2.7-2.88-4.75-5.06l1.5,1.03c-2.06-1.43-4.87-6.03-6.69-9.25.15.39.52,1.04.18.73-.69-.85-1.1-1.72-1.28-2.26-.18-.54-.12-.76.25-.4-.72-.8-1.65-2.59-2.64-4.44-.53-.91-.91-1.91-1.37-2.79-.44-.88-.89-1.67-1.33-2.25-1.45-1.75-2.61-3.63-3.86-5.51-1.32-1.87-2.33-3.86-3.45-5.86.22.46.43.96.62,1.48-.09,1.3.16,1.93-.91,0,.43.97.68,1.24.94,1.63.27.39.48.94,1.11,2.4-.68-1.07-1.32-1.19-.24,1.68,1.53,3.52,3.47,6.13,5.22,8.7.42.65.92,1.26,1.42,1.86.49.61.99,1.23,1.49,1.85,1.02,1.24,1.95,2.58,3.07,3.96-.15.4,3.02,4.97,4.52,7.22-.96-.58-2.13-2.21-3.39-3.89.73,1.09,1.94,3,2.94,4.35l1.04.08Z"/>
  <path class="cls-1" d="m80.77,153.38c.07.18.15.36.24.54-.03-.11-.1-.27-.24-.54Z"/>
  <path class="cls-1" d="m87.01,162.59s-.03,0-.05,0c.13.18.26.35.4.53-.12-.19-.26-.4-.35-.53Z"/>
  <path class="cls-1" d="m71.74,135.82c-.24-.41-.37-.72-.56-1.14.09.27.2.6.34.92.14.3.24.43.22.23Z"/>
  <path class="cls-1" d="m71.97,134.17l.2.2c-.03-.19-.05-.33-.08-.5-.09-.03-.14.04-.12.3Z"/>
  <path class="cls-1" d="m109.17,190.54l.62.41c-.35-.28-.51-.38-.62-.41Z"/>
  <path class="cls-1" d="m96.03,174.54c-1.64-2.02-.61.11-2.92-2.82l.65.89c-1.83-1.97-4.74-5.7-6.44-8.39.38.17-.86-1.74-.37-1.62-.64-.87-1.28-1.74-1.87-2.49-.58-.75-1.04-1.42-1.48-1.8-.57-1.22-1.86-2.83-2.6-4.37.18.72-1.83-1.78.48,1.71-.19-.28-.13-.07-.32-.35,1.11,2.46,2.05,3.17,3.24,5.14.31.62-.09.21-.45-.25-.35-.46-.68-.94-.39-.36,1.71,2.34,4.9,7.69,5.39,7.1,1.28,1.68,1.37,1.97,1.63,2.56,1.35,1.06,3.2,3.58,4.79,5.68.75.92,1.61,1.82,2.27,2.41.66.59,1.15.89,1.33.7-.89-.81-2.3-2.23-3.5-3.28l.55-.46Z"/>
  <path class="cls-1" d="m73.11,140.06c.05.16.11.37.14.5-.04-.15-.09-.33-.14-.5Z"/>
  <path class="cls-1" d="m73.37,108.09c.14.37.27.72.44,1.09-.5,2.73-.63,4.72-.77,6.59-.11.93-.06,1.87-.08,2.87,0,.5,0,1.03-.01,1.59.04.56.09,1.16.14,1.8-.06.4-.17-.22-.22-.54.15,3.62,1.16,9.07,2.1,11.59.06.29.14.69.22,1.12.11.42.21.87.29,1.25.15.76.2,1.25-.07.72.23.53.48,1.14.65,1.78-.18.24-.51-1.39-.71-1.37.14.51.16.72.27.81-.46-.79-.51,1.13-1.74-2.86.1-1.69.91,2.74,1.24,1.66-.4-1.31-.59-1.09-.7-1.19-.48-1.69-.24-1.69-.1-1.64-.34-.61-.56-2.8-1.06-3.63-.63-3.31.47.1.12-2.07l-.82-1.16-.22-1.82c-.06-.61-.06-1.22-.09-1.82-.31-2.62-.57-2.43-.86-2.32-.14.05-.29.08-.45-.28-.14-.37-.26-1.13-.36-2.67.17.41.39,0,.58-.87.23-.86.5-2.14.66-3.52-.06.83-.01,2.03-.02,3.27.08,1.26.15,2.56.05,3.65.27-1.53.22-.48.34.74.12,1.23.26,2.63.48,1.82-.18-.74-.37-1.73-.42-2.79-.03-1.05,0-2.16.06-3.13l.06.64c0-1.03-.03-1.92-.11-2.93-.09-1.01-.02-2.1.28-3.48.21-1.36.36-1.07.45-.81.07-.57.11-1.12.17-1.52.07-.38.14-.62.21-.61Zm-.46,2.9l-.3,1.83c.16-.42.25-1.11.3-1.83Z"/>
  <path class="cls-1" d="m245.18,136.73c-.08.2-.17.42-.24.6.07-.13.16-.36.24-.6Z"/>
  <path class="cls-1" d="m124.17,65.16l1.24.19c-.48-.09-.88-.14-1.24-.19Z"/>
  <path class="cls-1" d="m151.21,74.66l1.57,1.13c-.59-.49-1.08-.83-1.57-1.13Z"/>
  <path class="cls-1" d="m247.65,122.17v-.06c0-.1,0-.18,0-.29v.35Z"/>
  <path class="cls-1" d="m190.59,64.5c.29.02.61.02,1.04,0-.06-.06-.44-.05-1.04,0Z"/>
  <path class="cls-1" d="m150.92,74.46s.05.06.08.08c.07.04.14.08.21.12l-.29-.21Z"/>
  <path class="cls-1" d="m111.74,62.72c-.27.04-.52.07-.81.11.38-.03.62-.07.81-.11Z"/>
  <path class="cls-1" d="m113.58,64.43c-.29.03-.56.07-.77.1l.77-.1Z"/>
  <path class="cls-1" d="m74.58,82.53c-.32.49-.64.98-.92,1.49.45-.73.75-1.16.92-1.49Z"/>
  <path class="cls-1" d="m109.11,64.25c-.1.03-.19.07-.25.1.23-.03.34-.08.25-.1Z"/>
  <path class="cls-1" d="m239.99,145.96s.03-.07.03-.09l-.05-.07.02.16Z"/>
  <path class="cls-1" d="m239.29,149.97c-.19.43-.39.87-.58,1.31.24-.48.45-.95.58-1.31Z"/>
  <path class="cls-1" d="m214.88,67.61c.4.23,1.37.67.86.61.86.15.92-.17-.86-.61Z"/>
  <path class="cls-1" d="m238.83,137.37c0,.26-.02.57-.05.89.08-.58.16-1.08.05-.89Z"/>
  <path class="cls-1" d="m238.78,138.25c-.04.29-.08.59-.11.85.05-.3.09-.58.11-.85Z"/>
  <path class="cls-1" d="m203.25,70.64c-.1-.05-.25-.09-.46-.12.06.09.22.12.46.12Z"/>
  <path class="cls-1" d="m238.11,152.28c.03.29-2.42,6.07-.05,1.37.17.2-.16.98-.58,1.89-.42.91-1.08,1.85-1.36,2.5.61-.83,0,.59.31.4.3-.64.61-1.41,1.2-2.41.45-.36-.27,1.24-1.04,2.39,1.07-1.35-.75,2.04.62.06.3-.57.59-1.11.88-1.64.28-.53.49-1.08.72-1.59.45-1.03.86-2,1.23-2.94.37-.93.7-1.83,1-2.71.27-.89.45-1.8.64-2.7-.24.69-.5,1.4-.75,2.11-.28.7-.61,1.38-.91,2.06-.62,1.34-1.25,2.61-1.86,3.64l.07-1.09c.75-1.13,1.25-2.1,1.71-3.09.22-.49.44-.99.68-1.51.2-.54.41-1.1.67-1.72-.74,1.85-1.76,3.57-2.67,5.33-1.52,2.35-.77.64.11-1.36-.24.48-.47.91-.6,1Z"/>
  <path class="cls-1" d="m236.57,147.25l-.05.08c-.02.08-.06.18-.07.23.04-.11.09-.21.11-.32Z"/>
  <path class="cls-1" d="m81.45,87.12l-.14.46c.16-.35.19-.47.14-.46Z"/>
  <path class="cls-1" d="m239.66,144.82h0s.01-.04,0,0Z"/>
  <path class="cls-1" d="m89.3,79.1s-.01.04-.03.06c.03-.03.02-.04.03-.06Z"/>
  <path class="cls-1" d="m87.06,69.96s-.05-.01-.11,0c-.24.18-.11.12.11,0Z"/>
  <path class="cls-1" d="m89.28,79.06s.02.02.02.04c0-.02,0-.04-.02-.04Z"/>
  <path class="cls-1" d="m142.64,77.8s-.11-.16-.32-.37c-.11-.03-.04.07.32.37Z"/>
  <path class="cls-1" d="m132.68,72.25c-.06-.04-.1-.06-.19-.11l.19.11Z"/>
  <path class="cls-1" d="m212.47,64.99c-.63-.17-1.1-.3-1.51-.36.46.1.95.25,1.51.36Z"/>
  <path class="cls-1" d="m89.27,79.16c-.06.1-.17.23-.34.43.2-.22.29-.34.34-.43Z"/>
  <path class="cls-1" d="m156.72,87.73c-.08.14-.15.26-.22.39l.13-.15.09-.24Z"/>
  <path class="cls-1" d="m161.13,82.96c-.14.21-.17.32-.24.45.1-.12.19-.24.32-.38.1-.11.21-.22.32-.34.23-.23.46-.47.71-.71.48-.5,1.01-.99,1.52-1.42,1-.89,1.82-1.66,1.9-1.96-.61.42-3.72,2.78-3.38,2.17-.52.57-1.27,1.21-1.9,1.77-.6.57-1.13,1.04-1.38,1.36.87-.76.99-.75.72-.34-.28.39-.91,1.21-1.45,1.99-1.04,1.04.07-.67-.76.26-.22.31-.46.6-.68.92l-.33.47-.16.24c-.04.08-.03,0-.03-.04v-.14h0c-.22-.33-.46-.64-.69-.97.23.34.47.67.69,1.03h0v.23l.12-.18.26-.36c.17-.24.35-.48.55-.71-.17.42-.35.91-.53,1.42.07-.12.12-.21.19-.34.81-1.19,1.27-1.71,1.54-1.96.27-.25.34-.21.41-.19.14.07.28.02,2.26-2.28Z"/>
  <path class="cls-1" d="m160.89,83.41c-.23.29-.44.56-.59.79.38-.43.5-.62.59-.79Z"/>
  <path class="cls-1" d="m178.98,72.46c.25-.1.51-.21.85-.35-.16.07-.53.22-.85.35Z"/>
  <path class="cls-1" d="m68.84,123.33c.12-.11.13-3.15-.17-3.09.01.9.07,1.82.09,2.74l.07.35Z"/>
  <path class="cls-1" d="m233.05,82.72c-.21-.28-.44-.54-.67-.8-.06-.04-.12-.09-.17-.12.1.19.61.67.84.92Z"/>
  <path class="cls-1" d="m162.9,80.03c-.41.4-.56.61-.62.75.24-.28.49-.52.62-.75Z"/>
  <path class="cls-1" d="m232.58,83.36c.2.4.48.99.44,1.14.55.69,1.02,1.12,1.61,1.82-.63-.81-1.29-1.79-2.05-2.95Z"/>
  <path class="cls-1" d="m234.68,86.37l-.05-.06.05.06Z"/>
  <path class="cls-1" d="m68.86,125.16c.06.26.12.52.19.8l-.15-.41c.07.7.15,1.4.22,2.1.06.25.12.52.18.85-.03-.13-.08-.23-.12-.29.02.23.04.45.06.68.27.82.73,2.21,1.18,3.54.45,1.33.81,2.62,1.1,3.16.61,1.48,1.26,3.3,1.59,4.47-.33-1.08-.83-2.48-.88-2,.25,1.12.33,2,.54,3.05.29,1.03.75,2.22,1.7,3.98l-.87-2.16c.88,1.53,1.7,3.08,2.61,4.57.27.88-.12.34-.58-.51-.43-.87-.98-2.04-1.24-2.33.46.91.82,1.81,1.13,2.68.38.84.69,1.64.99,2.38.59,1.48,1.1,2.71,1.79,3.42-.21.41-.6,1.12.82,3.42-.61-1.88,1.04,1.26.63-.33.65.7,1.39,2.65,1.7,2.65l-.26-.14c.45,1.06.88,1.92,1.31,2.62.47.67.91,1.2,1.32,1.64.83.88,1.57,1.43,2.24,2.15.8,1.11,1.47,2.08,2.07,2.96.65.85,1.24,1.62,1.8,2.36,1.13,1.49,2.17,2.89,3.57,4.63-.07.3.11,1.7,1.38,2.97.79.39,3.81,3.09,4.41,3.06-2.19-2.34-2.14-1.56-3.56-2.84-.77-1.44.18-.41-1.03-2.14.91,1.4,5.7,5.4,6.85,6.99l-.54-.42c2.1,2.27,1.83,3.47,6.12,6.41l2.02,1.41c-.12-.04-.16-.01-.23-.03,3.06,2.61,1.92,2.27,5.6,4.82-.29-.2-.15-.02-.44-.22,1.81,1.8,4.09,3.06,5.64,4.2.68,1.02-.44.09-1.16-.17,3.36,2.95,7.48,5.55,9.89,6.98l2.09,1.99c-1.41-.97-3.26-2.01-3-1.52,1.27.95,1.14.63,2.83,2.11-.44-.07-1.3-.5-2.3-.95,3.33,3.24,1.31.04,3.37,2.64,1.12.93,1.99,1.21,2.28,1.1l1.81,1.95c.45-.08,2.98,1.97,4.66,3.29.3.05-1.09-1.38-1.8-1.79.3-.11,2.13,1.23,3.26,2.17-.05.9,7.45,6,5.56,5.56,2.75,2.14,6.13,4.77,9.08,7.07,1.06-.93,2.07-1.81,2.96-2.59.48-.43.93-.84,1.35-1.21.43-.4.82-.76,1.18-1.08,1.23-.75,3.49-2.58,2.36-1.21,4.09-3.34,5.72-5.65,9.9-8.82.39-.2-1.83,1.51-1.53,1.58,2.46-2.4,5.02-3.71,9-7.23-.68.58-.79.86-.84,1-.15-.03,1.52-1.57,2.51-2.54.64-.44-.74.72-.34.52,8.15-6.24,13.63-11.93,21.45-18.42-2.17,1.89-2.77,2.93-2.65,3.11.73-.6,1.49-1.2,2.2-1.81.67-.9,2.29-2.31,3.5-3.63.23-.08.94-.58.35.09,2.27-1.69,3.75-3.34,5.3-5.13,1.52-1.79,3.23-3.71,5.5-6.09-1.48,2.21-3.34,4.39-5.13,6.53l1.74-1.17-2.39,2.84c1.8-1.3,2.77-3.07,3.21-2.99-.26.4-1.1,1.15-.99,1.32,1.64-1.36,1.56-1.68,2.65-2.85-2.44,3.53-8.57,9.04-11.8,12.07-.49.5.33-.53.38-.67-.67.6-1.25,1.04-1.88,1.52-.63.46-1.29.97-2.13,1.74-.89,1.13.98-.5,1.87-1.19.06.31-.39.65-1.32,1.47-.44-.11-5.37,4.23-6.89,4.9-5.07,4.3,1.43.05-3.69,4.05l-1.77.91c-2.71,2.64-6.29,5.95-9.65,8.58l.69-.58c.35-.52-.49.02-.88.23-2.61,1.9-4.52,4.13-6.3,5.05-2.56,2.67-7.09,6.81-10.19,9.65-1.23.29,3.94-3.84,5.08-5.21l-2.96,2.43c1.82-1.5,2.41-2.26,3.31-3.4-2.66,2.05-3.2,3.12-5.57,5.24.1-.27-.29-.08-1.43.85l-.09.55s-.18.08-.55.34l-5.47,4.77c1.22-.8,1.35-.49,2.93-1.78-.62.23.67-.88,2.2-2.13-.61.66-.18.37.35-.01.43-.29.97-.68,1.02-.6-1.03.85-2.14,1.77-3.21,2.64-1.2,1.01-2.36,1.98-3.31,2.78-1.05-.83-1.8-1.41-2.4-1.88l-.58-.91c-.74-.64-1.49-1.26-2.24-1.87-.56-.45-1.12-.9-1.65-1.32-1.04-.82-1.99-1.58-2.69-2.22l.58.24c-2.52-2.21-5.21-4.14-7.29-6.29-2.55-1.6-5.66-3.75-7.81-4.99-1.29-.5-6.42-6-9.42-7.67-.15-.18,2,1.22,2.99,1.82-1.69-1.48-3.41-2.19-3.66-2.99,3.78,3.32.03-.45,1.86.89-1.82-1.49-3.79-3.01-4.79-3.62,2.94,2.42-1.45-.37,1.66,1.93-2.56-1.61-5.81-4.08-8.46-6.46.15-.13-.13-.48-1.1-1.39l-1.01-.46c-1.25-1.1,2.71,1.79.18-.42-1.48-.92-3.46-2.58-5.27-4.21-1.78-1.58-3.39-2.97-4.26-3.15-1.74-2.04,4.01,3.1,1.32.1,1.95,1.31,4.1,3.68,5.02,3.86-1.84-1.42-.39-.84-1.5-1.81l-2.09-1.47.41.39c-1.74-1.25-3.82-3.05-5.96-5.02-2.14-1.99-4.32-4.09-6.29-6.19-.23-.22-.45-.43-.67-.64-.2-.2-.39-.4-.58-.59-.39-.39-.76-.77-1.13-1.14-.74-.75-1.46-1.48-2.19-2.22-1.44-1.53-3.01-3.11-4.52-5.5,1.15,1.22-2.41-4.01-.02-1.36-1.26-2.28-2.93-4.24-3.13-4.18,1.23,1.93.4.7,1.4,2.35-.47-.47-1.12-1.33-1.72-2.21-.57-.91-1.05-1.86-1.3-2.43.27.5.2.29.33.36-1.24-2.45-.86-1.01-1.95-2.68-.01-.36-.54-1.31-1.16-2.39-.6-1.09-1.19-2.36-1.52-3.21l-1.59-2.17c.94,1.17-1.05-2.3-.85-2.85-.9-1.68-1.87-3.01-2.83-5.76.51,1.09-.57-2.62-.28-2.76-.3-1.21-.65-2.28-1.02-3.3-.31-1.03-.63-2.01-.96-2.98-.32-.97-.66-1.93-.9-2.96-.2-1.04-.35-2.13-.42-3.33.1.14.45,1.05.32-.33-.3-1.06-.39-2.98-.51-4.15v.04s0-.04,0-.06c-.06-.57-.13-.93-.21-.94-.25-.99-.4-1.76-.56-2.78-.14-1.02-.37-2.28-.33-4.33-.18.14-.34,1.07-.34,2.15,0,1.08.08,2.31.14,3.04.13.42.23.85.4,1.26-.46,1.24.36,3.6.26,4.52-.22-.58-.39-1.45-.56-2.5-.14-1.05-.35-2.27-.37-3.56-.03-1.29-.14-2.64-.1-3.94.05-1.3.02-2.54.06-3.63-.23.64-.35,1.47-.5,2.45-.15.97-.28,2.09-.29,3.26-.02,1.18-.09,2.44,0,3.69.09,1.26.19,2.52.3,3.75l.05-2.17.2,2.55.2-2.5c.05,2.42.51,4.45.81,6.59-.39-2.51-.03-3.54.1-2.12.08,2.83.6,2.87,1.08,4.94-.11-.58-.26-1.25-.31-1.65-.03-.41,0-.56.18-.08.52,4.17.91,5.26,1.65,9.01.22-.31.59.82.98,2.07.35,1.27.93,2.59,1.25,2.78l-.59-1.65,1.71,3.32c.8,3.37-1.59-2.64.01,2.35.41,1.14.85,1.92,1.21,2.55.36.63.67,1.09.97,1.53.6.87,1.15,1.61,1.99,3.29-.86-.94-2.46-3.5-3.77-6.26l.64,1.74c-.71-.74-2.2-4.75-2.97-6.73.84,1.56.72,1.16.35.18-.18-.49-.42-1.13-.64-1.74-.18-.63-.32-1.24-.36-1.65-.42-.17.31,1.98-.76-.49.73,2.41.93,2.72,1.98,5.72-.59-1.61-1.12-2.74-1.55-3.65-.4-.92-.76-1.59-1.11-2.24-.35-.65-.69-1.28-1.04-2.12-.17-.42-.35-.89-.53-1.44-.16-.56-.28-1.21-.42-1.97.79,2.72.27-1.08.36-1.44-.17-.64-.42-1.61-.67-2.55-.2-.96-.4-1.89-.51-2.44l-.35,1.08c-.38-1.77-.35-3-.36-4.28.07-1.31.11-2.66-.3-4.72-.34-.53.17,3.67.06,2.92-.17-1.42-.32-2.61-.29-3.7.03-1.09.11-2.05.22-2.98.08-.93.3-1.85.48-2.85.18-.99.37-2.07.66-3.33-.1-.31-.46-.28-.44-2.14.21.62.54-.68.48,1.37.35-1.69.57-3.76.88-5.37-.46,1.5-.55,1.49-.49.9.03-.3.09-.74.17-1.2.05-.23.1-.48.15-.71.02-.12.05-.23.07-.34l.03-.16s0-.02,0-.03c-.03-.02-.06-.04-.09-.05,0,0,0-.01,0,.04v-.06s.03-.08.04-.12c.02-.07.03-.14.05-.19.03-.11.05-.18.07-.22.04-.08.06-.05.06.06,0,.11,0,.31-.02.55.03-.03.06.03.08.04,0,0,.01,0,0,.02l-.03.15c-.02.1-.04.2-.07.29-.04.19-.08.37-.12.52.07-.17.14-.35.21-.52l.11-.26.06-.13s.01,0,.02-.01c.02,0,.05-.02.06-.03l.03-.02s0,0,0,.04l.02-.06.04-.11c.09-.31.18-.59.25-.86.14-.53.21-1,.12-1.36.09,0,.11.36.09.94-.02.29-.04.64-.06,1.02,0,.1-.01.2-.02.31v.16s-.02.09,0,.02h0c.02.05.04.1.05.14v.02s-.02.12-.02.12l-.05.25c-.04.17-.07.34-.11.51-.08.34-.13.69-.19,1.03-.12.68-.26,1.35-.35,1.93.12-.61.31-1.23.49-1.85-.18,1.33-.26,1.54-.66,3.36.59-1.74.82-1.49.96-1.04-.09.22-.05-.14-.14.07-.39,1.43-.43,2.55-.21,2.24.13.68.26.19.4-.58.18-.77.41-1.83.6-2.28.13-.74.3-1.48.47-2.21l.08-.61.04-.31c.02-.11.03-.21.02-.23,0-.13-.05-.2-.06-.36l.02-.84c.02-.55.05-1.1.09-1.64.07-1.09.19-2.16.33-3.24.87-3.13,1.75-4.36,2.93-6.47l-.05-.76c1.25-2.53,2.72-4.75,2.23-2.96-.16.03-.31.37-.62.89,0,.09-.03.23-.09.4,0,.06,0,.1,0,.15,1.28-2.7,2.28-4.31,2.36-4.46-2.21,4.61.42.56.53,1.63.83-1.46,1.72-2.9,2.69-4.28-2,2.35-.32-.16.32-1.07.43-.04,2.66-3.15,4.04-4.35l-.04.15c1.27-1.08,3.49-2.99,5.14-4.27-.08-.03.35-.54.93-1.17.57-.64,1.3-1.38,1.8-1.85-1.64.84-1.95,1.06-1.97.94,0-.1.35-.43.16-.45.33-.2.92-.56.97-.63.41-.36-.7.24-.84.21-3.31,2.22-6.33,4.99-7.1,6.48,1.03-.64,1.32-1.58,2.47-2.31-1.28,1.49-3.13,3.13-5.24,5.55-.3.2-.62.39-.92.6-.62.88-1.26,1.75-1.83,2.67.66-1.18-.13-.75,1.99-3.45-.53.13-2.1,2.68-3.33,4.36l-.24,1.11c0-.49-2.33,3.3-.97.43.82-1.52,1.7-3.01,2.68-4.47-.38.32-.74.66-1.09,1,.41-.62.86-1.21,1.31-1.8.44-.6.91-1.18,1.4-1.75l-.53.93c.56-.7,1.01-1.24,1.38-1.67.39-.41.69-.7.94-.92.49-.43.74-.55.99-.68.25-.12.51-.25,1-.67.25-.21.56-.5.96-.89.41-.39.93-.87,1.6-1.49,1.48-1.76,3.42-3.39,7.46-5.35-2.79,1.64-.13.46-1.06,1.29,2.96-1.37,3.81-2.12,5.32-2.94.87-.07,1.48-.09-1.22.97-.06.32.81-.06,1.75-.47.94-.41,2-.73,2.2-.52,1.12-.4,2.08-.67,2.92-.94.83-.27,1.54-.53,2.17-.72,1.27-.4,2.21-.83,3.23-1.13,2.04-.68,4.29-1.14,9.73-.93l-.41.21c1.73-.01,3.28.01,4.73.06.36.01.72.02,1.07.04.35.04.7.09,1.04.13.68.09,1.35.18,2.02.27,2.67.28,5.23.96,8.4,1.67,1.57.73,3.15,1.39,4.66,2.19-1.09-.37-4.13-.84-2.87-.15-.53-.33-1.1-.61-1.67-.87-.29-.13-.58-.26-.88-.37l-.92-.27c-1.24-.35-2.51-.67-3.77-1.12-.29.09.74.44,1.17.63-.78-.17-1.34-.41-1.98-.54-.64-.14-1.36-.28-2.4-.37.09.13,2.32.58.61.42l-2.78-.73c-1.9-.12-2.38.17-2.94.29-.56.15-1.18.26-3.39.09.82-.29,2.52-.69,4.26-.7-2.04-.15,2.74-.08.89-.35-1.5.18-2.59.16-3.8.12-.61-.01-1.25-.07-1.97-.04-.72.05-1.54.13-2.51.25.45-.09.57-.19,1.53-.27-1.89.04-3.77.05-5.67.13.73.05-.46.27-1.74.54-1.28.23-2.65.65-2.35.79,1.51-.28,2.54-.32,3.33-.44.79-.11,1.35-.18,1.93-.2,1.16-.07,2.42-.17,5.82-.2-1.93.17-4.38.74-5.49,1.19-.06-.01-.16-.02-.36-.02-.98.46.07.52.11,1.23,1.48-.34,2.75-.43,4.07-.5,1.33-.12,2.72,0,4.52-.08.35-.18-.17-.33-1-.42-.83-.08-1.98-.18-2.86-.04,1.05-.19,2.12-.15,3.18-.22l-.63.16,4.03.22c1.34.16,2.67.39,4.01.58-1.52-.18-2.07-.03-2.87.04,1.03.15,2.03.39,3.09.65-.17-.4.01-.64,1.02-.5,1.28.24,2.4.59,3.39.85.99.3,1.88.5,2.62.86,1.49.64,2.57,1.2,3.4,1.69.19.05.41.11.57.18-.33-.35.57-.15,1.78.18,1.2.33,2.72.76,3.51,1.01-.12.16.45.53,1.2.97.76.43,1.7.95,2.27,1.46.46.02.55-.24.34-.68-.2-.44-.7-1.05-1.45-1.64-3.4-1.31-1.97-.61-3.76-.8-1.82-.6-3.57-1.34-5.43-1.74l1.33.06c-1.32-.52-2.68-.88-3.65-1.15-.97-.3-1.6-.36-1.43-.59.78-.01,1.74.29,2.7.57.96.28,1.92.56,2.69.65l-1.75-.76c3.36.62,1.48.95,5.36,2.22-.61-.48-.52-.45-.06-.24.46.2,1.28.58,2.1.89-.54-.5-2.22-1.18-3.57-1.77-.68-.3-1.27-.58-1.61-.79-.35-.18-.44-.32-.09-.38,1.06.24,2.65,1.17,4.32,2.04.81.49,1.63,1.01,2.43,1.43.8.43,1.58.76,2.26,1.01h-.16c3.52,2.25,4.85,2.93,6.29,3.67.62.67,1.45,1.34,2.32,2.01.84.7,1.7,1.42,2.42,2.09l-.18.11c.2.17.31.24.44.35-.16.09-.3-.06-.4-.23-.03-.03,0-.01-.07-.1l-.25-.27c-.17-.18-.35-.37-.54-.56-.37-.39-.77-.79-1.21-1.19l-.03.47c-.86-1.08-1.79-1.75-2.68-2.31-.92-.53-1.86-.9-2.79-1.39.66.38,1.41.9,2.19,1.46.76.58,1.51,1.24,2.23,1.83.73.57,1.33,1.19,1.88,1.59.27.21.51.38.71.49.1.06.2.1.28.13.07.02.09-.02.14-.04.02.2.05.42.11.66.08.02.16.04.22.04.04.26,0,.47-.17.51-.14.05-.49-.12-.87-.47.01-.06-.17-.28-.2-.35-.05-.09-.04-.13.03-.11-1.03-.75-2.01-1.37-4.28-3.34l1.35.89c-1.4-1.26-2.88-2.28-4.12-3.09-1.25-.8-2.34-1.27-2.96-1.47,1.11.76,2.25,1.46,3.28,2.3.53.4,1.05.8,1.58,1.21.52.4,1,.85,1.5,1.27,1.01.83,1.94,1.74,2.87,2.64.58.55.64.64.88.89.21.22.42.44.59.65.25-.12.45-.23.6-.37.33-.27.49-.64.54-1.39h0s.01,0,.03-.04l.05-.1.09-.19c.06-.11.12-.21.19-.29.03-.04.07-.07.11-.11,0,0,.06-.06.03-.02.18-.16.35-.32.52-.48.69-.61,1.33-1.2,1.95-1.64l-.11.29c1.19-.89,2.17-1.84,3.04-2.58,1.38-.77-.61.96.33.4,1.27-1.06,2.55-2.13,3.93-3.05-.03.25-.96.87-2,1.69-1.03.84-2.3,1.71-3.03,2.39.26-.27.81-.79.6-.67-.92.7-2.15,1.81-3.18,2.89-.52.54-1.01,1.04-1.44,1.43,0,0-.12.11.03-.03h-.02s-.04.04-.04.04c-.03.01-.05.03-.08.03-.05.01-.11,0-.16-.03-.06.13-.02-.05-.06-.17-.03-.12-.13-.2-.33,0-.16.04-.2.19-.24.42-.04.22-.06.48-.07.61-.03.32.65-.4.5.15.18-.24.28-.45.4-.64.06-.09.12-.18.21-.27,0,0,.02-.02.01-.01-.13.12-.07.07-.08.08h0s.02-.02.02-.02l.03-.03.13-.12c.09-.08.19-.17.29-.26.2-.17.42-.36.67-.57-.17.17-.35.36-.53.55l-.27.29-.14.15-.07.07-.03.04c-.06.05.13-.12.08-.07h0c-.09.15-.17.3-.26.44-.19.28-.37.56-.52.49-.31.65-.47,1.41-.5,1.88-.03.49.13.62.42.29-.08-.12.42-.9.72-1.4.33-.51.37-.74-.35-.2.11-.27.24-.54.4-.78.08-.12.15-.24.24-.36l.06-.09.02-.02h0s.05-.06-.08.06h.01s.11-.13.11-.13l.43-.46c.59-.6,1.17-1.25,1.79-1.83.61-.57,1.21-1.13,1.74-1.66l-.06.14c.92-.82,1.92-1.53,2.88-2.3-.36.39-1.2,1.12-1.11,1.3.63-.57,1.25-1.16,1.9-1.71l2.01-1.59c-2.23,1.85,1.6-.8,2.88-1.17.33-.52,2.01-1.66.23-.91-2.01.84-1.06.69-2.73,1.72.69-.66,1.46-1.17,2.21-1.77l.23-.07,1.32-1.14c3.51-1.54-1.15,1.46,3.17-.82l-.79-.24c5.28-2.25,12.51-3.32,16.4-3.85-1.05.44-1.44.99.05,1.08-.84.06-2.09.21-3.43.39-1.34.21-2.74.62-3.91.89-.24,0,.46-.32,1.55-.7.55-.19,1.19-.4,1.86-.58.68-.13,1.38-.24,2.04-.3-1.45-.84-6.41,1.82-6.91,1.02-6.6,1.75-4.55,2.28-9.99,4.14.11.39-1.36.93-1.46,1.38,1.72-.32,6.83-3.35,10.48-4.12-.33.14-1,.42-1.12.54,2.51-.76,3.56-.95,5.31-1.54h-.23c1.52-.54,2.02-.59,2.37-.47.35.1.55.29,1.49.25.71-.16,3.29-.38,2.85-.61.57-.03,1.13,0,1.7.05l1.69.12-.18-.43c1.9-.08,2.32.13,4.04-.11l.09-.39c-1.58-.1-3.17,0-4.76-.01,2.41-.22.66-.41,3.33-.59-1.49.27-.96.31-.03.32.94-.04,2.26.15,2.4.32l1.95-.12-.5.08c1.51.29,1.82-.06,3.6.12-2.08-.37-3.45-.7-6.15-.57,1.96-.1,5.86-.21,6.84-.05,1.06.06,1.95.19,2.81.4.86.23,1.69.48,2.66.69-1.88-.29-1.61.07-1.8.28-.19.22-.81.21-4.48-.37.14-.06.74.04.97.11-.23-.16-.63-.27-1.11-.35-.48-.05-1.05-.05-1.64-.04-1.18.03-2.44.14-3.23.2.39.31-1.25.3,1.53.61-.45-.12.14-.25,1.19-.3.52-.03,1.16-.03,1.82,0,.67.02,1.38.17,2.04.3l-.55.56,1.93.29,1.91.4-.36-.04c.68.33,1.7.5,2.86.79.58.14,1.21.25,1.83.45.62.2,1.26.43,1.88.7.49.08,1.27.38,2.13.7.88.3,1.8.73,2.59,1.08.79.33,1.43.63,1.71.71.28.07.22-.09-.42-.64,1.96,1.53,4.06,2.21,6.26,3.81-.85-.73-1.69-1.49-2.61-2.16.91.44,1.5.79,1.93,1.06.44.26.72.44.99.6.55.3.99.57,2.48,1.34.14.34.57.94-.03.63,2.02,1.81,4.22,4.25,6.02,6.62,1.82,2.36,3.26,4.63,4.25,5.87.9,1.66,1.21,2.72,1.61,3.93.4,1.21.88,2.58,1.9,4.98.44,1.02.3-1.02,1.2,2.36.03.23-1.44-3.05-.24.62.32.65.57,1.39.77,2.21.1.41.19.83.27,1.27.03.21.07.42.1.63,0,.08,0,.15.03.23.11.4.22.8.33,1.21.1.43.21.87.31,1.31.24.88.39,1.73.67,2.59.09.96.2,2.26.29,3.24.06.98,0,1.63-.21,1.3,0-.74-.11-1.57-.22-2.39-.11-.82-.21-1.65-.39-2.4-.3-1.5-.69-2.71-.86-3.01.35.36-.38-2.2.4-.03-.07-.41-.16-.77-.25-1.08-.08-.28-.14-.52-.2-.72-.04-.1-.04-.19-.06-.27-.05-.22-.09-.41-.14-.58-.09-.33-.18-.58-.28-.86-.19-.57-.39-1.25-.79-2.88-.21-.22.17,2.11.49,2.93-.24.06-.78-1.86-1.31-3.29-.54-1.44-.97-2.42-.7-.65.45,1.43.87,2.48,1.26,3.42.19.47.38.91.54,1.37.08.22.16.46.23.69.04.09.08.21.14.3.02.02.05.12.09.23l.11.31c.07.21.13.43.19.66.1.46.18.96.24,1.52-.17-.36-.33-.78-.47-1.24-.07-.23-.16-.46-.24-.71l-.13-.37c-.04-.11-.1-.28-.12-.31-.07-.12-.09-.24-.13-.38-.07-.25-.14-.5-.22-.74-.16-.48-.36-.94-.6-1.36.09.48.17.97.24,1.46l.1.74c.01.15.01.3.06.45v.06c.36.65.7,1.36.99,2.06l-.11-.11c.42,2.71.68,3.89,1.05,5.02.41,1.13.78,2.2,1.06,4.61.18-2.83.94.62,1.02-1.53.18,1.65.15,3.07.07,4.08-.08,1.01-.23,1.61-.49,1.61-.2-3.04-.34-3.11-.48-3.14-.17-.02-.24,0-.7-2.75-.13.91-.84-1.24-.69,2.01.37,3.66.44-1.11.6,2.56-.05.22-.09.44-.17.31.28,1.7-.15,1.96,0,4.01l-.07-.49c-.25,1.24-.21,1.93-.18,2.58,0,.64-.02,1.25-.35,2.29.51-.8.1,1.48.13,2.86.24-1.08.54-1.89.85-2.98.16-.54.32-1.16.48-1.91.12-.76.21-1.66.29-2.76-.26-.55-.45-.24-.47-2.04l-.17,2.83c0-.62-.05-1.09-.07-1.65l.18-1.35.08-1.37c.12,1.74.16,2.21.31,2.44.13.23.29.21.4.96-.37,3.19-.1,2.65-.5,4.62-.21-.13-.62,1.36-1.09,3.31-.6,1.92-1.28,4.3-1.86,6,.18-.53.3-1.25.41-1.62.3-2.62-.73,1.67-.94,1.71l-.35,1.87c.08-.35.12-.85-.18-.1-.34,1.24-.39,1.85-.45,2.47-.08.61-.06,1.26-.52,2.46-.29.09.13-2.04-.56-.61-.4.44-1.57,1.84-2.61,5.05,0,.13-.07.4-.18.76-.13.35-.32.78-.52,1.24.05-.13.12-.29.13-.36l-1.22,1.89c.23-.94.69-1.78,1.15-2.62.44-.85.81-1.75.98-2.71l-.31-.3c.54-1.38,1.14-3.29,1.25-4.23-.86,2.07-.96,2.54-1.8,4.91-.36.23.12-1.48.18-1.72l.07.43c.7-1.33,1.04-2.4,1.34-3.57.24-1.2.47-2.48,1.06-4.24.18-.53.11-.2.14-.06.31-1.47.64-2.92.99-4.35.34-1.43.72-2.86.64-4.35l.07.97c.05-.99.14-2.46.23-4.16.03-.85-.03-1.76-.04-2.7-.04-.94,0-1.89-.12-2.85l-.15-.04c-.09.42-.08-1.01-.02-1.77h0c-.04-.47-.09-.94-.13-1.4-.07-.46-.15-.91-.22-1.34-.15-.87-.25-1.69-.41-2.42-.02.48-.09,1.09-.06,1.78.1.29.2,1.29.26,2.17.03.88.1,1.63.3,1.39-.15.8-.06,1.85-.11,2.85-.04,1-.06,1.94-.18,2.53.41-2.13.31,1.54.43,1.94-.37.69-.46,3.19-.76,2.86-.15.41.39-1.02.32-1.96.01-2.28-.9,4.05-.79,1.22-.09.89-.13,1.86-.34,2.84-.2.98-.41,2-.62,3.03-.1.51-.21,1.03-.31,1.54-.11.51-.27,1-.4,1.5-.27.99-.51,1.95-.71,2.86l.75-1.94c-.27.78-.68,2.11-1.05,3.28-.38,1.16-.85,2.11-.96,2.22.21-.58.44-1.2.69-1.86.19-.68.39-1.4.6-2.16-.18-.1-.45.8-.72,1.73-.27.93-.66,1.86-.79,1.91l-1.07,4.48.76-1.86c-.06.32-.22.79-.44,1.37-.21.58-.51,1.26-.9,1.96-.74,1.41-1.6,3.03-2.32,4.41.15-.93.66-1.98,1.28-3.18.31-.6.65-1.24,1-1.92.34-.68.59-1.43.85-2.21.68-2.27-1.02,1.15-.32-.97-.33.49-.85,1.84-.99,2.56l-.47.75c.26-.97.68-2.53,1.26-4.15.55-1.63,1.19-3.36,1.37-4.84-.03.26-.04.49,0,.59.42-1.05.81-2.12,1.15-3.2.16-.54.35-1.07.46-1.62.1-.55.2-1.1.3-1.64-.42,1.09-.38,1.57-.53,2.22-.09.06.3-1.98.34-2.76-.59,1.94-.37.3-.73,1.53.18-1.31.45-2.34.86-3.89.37-.78.1.72.37.61.12-.82.36-1.39.54-2.07.19-.68.39-1.46.43-2.68-.61,3.18-.35-.91-.45-2.02l-.06.53c-.21-1.04-.16-1.88.16-2.56.02,1.31-.16,2.56.16,2.22.05-.86.1-1.72.09-2.7l.14.9c.04-.72.1-1.43.12-2.15l-.02-2.14c-.25-.68-.6-1.79-1.05-2.35.15-1.01-.08-2.41-.33-3.31l.16.42c0-.92-.18-2.39-.5-3.61-.3-1.23-.68-2.19-.84-2.31-.08-.62.91,1.33,1.42,2.61.28.61.5,1,.52.66,0-.33-.08-1.46-.76-3.62-.04-.13-.08-.26-.12-.37-.05-.13-.09-.25-.12-.35-.09-.24-.15-.46-.2-.67-.03-.1-.05-.2-.08-.29-.02-.06-.04-.11-.05-.17-.07-.21-.14-.38-.21-.52-.14-.28-.28-.44-.41-.57-.27-.26-.52-.42-.88-1.28,0,0,.1.09.09-.12-.37-1.5-.7-1.57-1.21-2.74.2.91.59,2.19.8,2.58-.39-.36-.92-3.08-1.59-4.1.5.63.27-.08,0-.82-.28-.74-.63-1.5-.28-1-.91-2.99-2.92-5.69-4.07-6.83-.65-2.05-2.06-2.97-4.05-5.61.32.4,1,1.03,1.41,1.62.72.64.25-.1-.21-.67-.45-.59-.82-1.08.27-.07-.46-.44-.17.09.28.55.74.86,1.52,1.61,1.48,1.29-.48-.79-.94-1.61-1.48-2.38.24.22.47.45.69.69-.77-1.19-1.62-2.34-2.51-3.47-.13-.03.08.32.19.5-1.65-1.83-3.7-3.53-5.84-4.94-2.13-1.43-4.38-2.49-6.35-3.36-.58.33-3.02-.61-5.92-1.23-.71-.19-1.47-.31-2.21-.44-.74-.13-1.47-.26-2.18-.31-.71-.07-1.37-.12-1.97-.15-.61.01-1.16.05-1.6.1.96-.25,1.54-.75.97-1,.2,0,.45-.02.75-.05.29,0,.63-.01.99-.02.73.01,1.6-.01,2.47.22.26.22,2.37.83.95.75,4.8.95-.54-.62.95-.68-1.36-.24-2.58-.44-3.72-.48-.57-.03-1.11-.06-1.63-.09-.53.02-1.03.04-1.52.06-.97.05-1.89.1-2.77.14-.88.04-1.74.06-2.6.19l-.09-.12-2.6.33c2.13-.01,2.04.59-.69.48l.33-.04c-.39-.04-.89-.08-1.45-.03-.55.07-1.17.16-1.81.27-.64.11-1.31.22-1.97.32-.33.06-.66.09-.97.16-.31.07-.62.14-.91.21l-1.51.7c-2.35.46-2.6-.02-3.47-.16-.91.29-1.72.58-2.45.87-.73.3-1.34.69-1.94,1.02-.59.35-1.14.68-1.7,1.02-.54.36-1.05.76-1.61,1.13-1.26.19-6.05,3.27-3.7,1.36-1.41,1-1.67,1.8-2.28,2.62-.61.81-1.51,1.69-3.9,3.33.3-.41.59-.83.92-1.21-.57.46-1.08,1.04-1.65,1.6l-.42.43c-.26.26-.46.53-.69.8-.45.54-.91,1.08-1.37,1.62-.47.51-.9,1.17-1.34,1.81-.44.64-.88,1.28-1.32,1.92-.44.65-.87,1.3-1.3,1.93-.21.32-.42.63-.62.94l-.3.46-.07.11v-.02s0-.05,0-.05h0s-.34.3-.34.3l-.42.42-.41.42-.2.21-.1.1-.16.19c-.9,1.07-1.77,2.11-2.61,3.12-.07-2.76-.14-5.4-.2-7.87-.03-1.17-.05-2.3-.08-3.39,0-.18-.03-.17-.05-.21l-.08-.09-.16-.18c-.1-.12-.2-.23-.3-.35-.78-.89-1.46-1.71-1.86-2.21.32.16.52.24.52.09,0-.07-.03-.17-.1-.31-.06-.14-.1-.21-.18-.35-.31-.49-.91-1.28-1.63-2.07-.75-.77-1.53-1.67-2.24-2.35-.69-.7-1.21-1.3-1.27-1.64.05.18-.35-.07-.85-.3-.49-.24-1.04-.53-1.2-.56-.34-.34-.94-.87-1.75-1.12,1.79,1.33-1.8.01,1.95,1.93-1.09-.28-2.21-.75-3.67-1.23-.72-.26-1.48-.59-2.33-.96-.88-.31-1.82-.69-2.87-1.15l.21-.34c1.09.53,2.21.99,3.27,1.57-.2-.43,1.45.46,2.19.71-2.94-1.71-2.68-1.76-2.4-1.86.27-.1.52-.17-2.75-1.54-.72-.02-.26,0-2.04-.47.82.25,1.07.05-.26-.39l-1.37-.12c-2.17-1.4,4.03.87,2.17-.23.34.08.71.16,1.1.24.38.12.77.25,1.16.38.79.26,1.59.52,2.28.75,1.38.46,2.3.84,2.03.38-.5-.29-.94-.53-1.33-.71-.41-.16-.77-.28-1.1-.38-.66-.2-1.18-.3-1.71-.4-1.04-.24-2.15-.34-4.37-1.19l-.42-.36c-1.65-.35-2.02.01-2.95-.01-.05-.14-.44-.32-1.48-.6-.36-.02-.69-.03-1.02-.05-.33,0-.65.01-.96.02-.62,0-1.2,0-1.77.01-1.14.02-2.25-.03-3.55.25,6.8.28,5.74.84,12.5,2.35-1.05-.33-5.87-1.22-6.24-.76l.14-.37c-1.12-.1-2.26-.11-3.45-.22-.59-.06-1.2-.12-1.84-.19-.64-.02-1.31-.06-2.02-.11l1.74-.16c-1.89.07-3.44-.14-4.91-.3-1.47-.02-2.86,0-4.33.41,1.06-.02,1.91-.08,2.56-.18-.97.14-2.06.24-3.18.3-.56.02-1.12.07-1.66.14-.54.06-1.08.11-1.6.17-.69.2-1.36.48-2.04.71-.68.22-1.33.5-1.98.79,0-.1-.65.02-1.16.08-.5.06-.85.11-.28-.24-1.49.33-2.55.73-3.37,1.23-.41.24-.79.47-1.16.69-.36.24-.7.47-1.08.68-1.48.48-.9.15.06-.38.94-.57,2.35-1.16,2.39-1.49-2.06.67-4.04,1.72-5.72,2.76-1.65,1.11-2.99,2.24-3.8,3.15.71-.51,1.12-.66,1.13-.57-.2-.05-1.5,1.07-2.23,1.68l-.31.64c-1.28.95-1.23.7-.36-.37-1.19.99-2.07,2.67-3.37,3.63,1.45-2.25,4.11-4.33,5.07-5.3-2.05,1.82-3.1,2.72-4.34,3.73-1.17,1.07-2.54,2.28-4.37,5.36-.15,0,.31-1.14-.45.02-1.6,2.78.01.99-.26,1.98,1.1-2.18,1.93-3,2.99-3.94l-.2.64c-.15.01-1.03,1.23-1.34,1.56l.14.56c-.3-.42-1.92,1.46-2.65,3.26,1.23-1.54.96-1.09,1.68-1.28-.43,1.28-.88,1.87-1.34,2.53-.46.65-.94,1.36-1.27,2.84-.07-.27.9-2.71-.12-.68-.76,1.72-.3,1.64-.64,2.84.14-1.45-.29-1.23-.11-2.84,1.35-3.1.52-1.26,1.88-4.28-.55.76-1.06,1.56-1.57,2.36,1.21-2.62.55-2.09.52-2.37-1.33,2.13-1.56,3.08-1.67,3.81-.11.73-.1,1.27-.71,2.74-.29,1.53,1.11-2.76.52-.43-.54,1.38-.53,1.56-.51,1.8.03.23.03.51-.35,2.11v-.58c-.53.9-.52,1.95-.73,3.06-.06.49.19.42.44.47.13.02.25.08.35.24.04.1.1.14.11.38-.01.29-.04.64-.13,1.1l-.04.17-.02.1c-.01.06-.02.13-.03.2-.03.14-.06.29-.09.45-.08.33-.15.74-.27,1.21-.05-.25-.09-.35-.14-.36-.13-.34-.26-.69-.38-1.04l-.17-.52-.08-.27c-.03-.08-.06-.18-.06-.34-.02-.23-.04-.45-.08-.68-.04-.22-.07-.46-.14-.57-.12-.28-.23-.58-.34-.87-.21-.59-.41-1.2-.6-1.82-.13.5-.26,1.01-.38,1.54-.06.26-.11.53-.17.81-.03.15-.06.31-.1.47-.03.18-.08.35-.14.52-1.44,4.38-2.08,9.63-2.07,14.93-.62,1.57-.58-4.66-.8-4.28l.33-2.99c.13.1.05,1.66.02,2.87-.03,1.21.11,2.05.32.72.02-1.22.08-2.28.13-3.26.08-.97.23-1.85.33-2.72.28-1.73.53-3.37,1.02-5.5.11-.31.09-.71.13-1.05-.17.22-.24.57-.44.96-.44.98-.81,2.49-1.04,4.08-.16.79-.25,1.61-.37,2.4-.12.79-.29,1.54-.42,2.22.13-1.37.27-2.53.31-3.67-.56,3.05-.85,6.36-.87,9.9.05.26.1.53.18.79.03-2.38.1-4.02.12-4.23-.02,1.57.05,3.02.21,4.09.22,1.07.48,1.76.73,1.85l-.02-.55.23,1.11c.03.73.03,1.46.09,2.18Zm134.95,65.92c-.11.16-.19.29-.23.42.04-.13-.08-.08.23-.42Zm-111.86-119.32c-3.8,1.96-7.4,4.46-10.31,7.4,2.92-2.37,5.75-3.8,6.44-3.96.35-.08.2.18-.64.89-.42.35-1.01.83-1.75,1.49-.76.64-1.66,1.48-2.72,2.53l-.49.61c1.13-1.08,3.12-2.89,5.11-4.44.36-.37.91-.97,1.6-1.59.34-.32.7-.66,1.07-1,.39-.32.78-.65,1.15-.96.75-.66,1.5-1.18,2.04-1.59.54-.41.88-.68.85-.69-.78.1-1.68.8-2.92,1.39l.57-.08Zm3.37.13c2.2-.78,1.63-.77,1.9-1.08-.76.33-1.51.66-2.26.99.31-.07.48-.07.35.09Zm1.71-1.21c-.25.1-.46.17-.58.19l.58-.19Zm-27.49,34.4l.04-.13.03-.1-.04.1c-.17.5-.37,1-.5,1.52.08-.22.22-.62.47-1.39Zm1.6-4.53l-.16-.63c-.17.49-.33,1-.48,1.52.2-.13.37-.28.65-.89Zm7.36-13.24c.07-.52.59-1.41,1.05-2.24.48-.82.91-1.55.79-1.78.03-.24-.42.27-.93.84-.54.66-1.06,1.4-1.63,2.19.04.07-.01.26-.14.56.56-.77,1.04-1.2,1.05-.73-1.88,1.66-.85,2.03-2.28,4.19-.13.87,1.71-2.34,2.08-3.03Zm164.55,19c-.01.08-.05.36-.09.74-.21-.56-.45-1.06-.71-1.61l-.05-.11c-.08-.22-.09-.47-.13-.68-.03-.2-.06-.39-.08-.59-.06-.39-.11-.77-.17-1.15-.12-.75-.24-1.48-.39-2.2-.31-1.43-.75-2.79-1.57-4.07-.37-1.35-.39-2.17-.46-2.93.28.63.49,1.25.67,1.76,1.85,3.57,1.95,4.85,1.98,5.75.02.93-.14,1.47.6,4.1.12.29.25.63.4.99Zm-19.56-32.24c.31.17.46.17.46.17-6.87-3.46-12.92-4.59-16.85-5.29.36.23,1.4.6,2.54.95,1.14.39,2.37.83,3.15,1.13-.51-.03-1.03,0-1.53-.01l-.82-.53c-.85-.12-1.73-.12-2.58-.18.33.2,1,.38,1.75.57.74.22,1.55.49,2.19.75.07-.04,1.18.16,2.43.43,1.25.25,2.61.68,3.24.79-1.06-.51-2.1-1.11-3.22-1.54.45.18,1.77.71,3.2,1.27.7.32,1.43.65,2.08.95.65.31,1.22.63,1.64.83.07-.07-.57-.58-1.3-1.04-.76-.42-1.6-.79-1.87-.69-.23-.44,3.17,1.21,1.16-.11.34.12.7.26,1.07.42.36.18.73.38,1.11.58.77.39,1.53.89,2.24,1.39,1.45,1,2.7,2.1,3.44,2.84l-.04.6c.82.79,1.16.98,1.58,1.17.42.2.88.44,1.71,1.54-2.39-2.33.03.75-1.88-1.07.48.71-.32.36,1.51,2.21,1.93,1.2,1.49,2.32,3.17,3.61.63,1.23-1.17-.96.32,1.27,1.99,2.37,2.05,2.16,2.57,2.07-1.43-2.59-2.27-2.46-3.61-4.42,1.19,1.07,2.3,2.24,3.4,3.46-.38-.81-.74-1.37-1.07-1.81.56.79,1.14,1.4,1.64,1.93.28.31.54.59.78.84-1.37-2.41-2.85-4.38-2.94-4.86l.41.18c-.42-.92-1.56-2.1-2.18-2.54-.81-.96-1.76-1.78-2.48-2.47-.76-.65-1.32-1.16-1.42-1.46l.84.5c-2.34-2.01-2.6-2.25-5.82-4.41Zm-85.93-2.88c.34.38.71.73,1.16,1.17.44.44.98.92,1.72,1.46.37.27.79.56,1.26.87.46.34.97.72,1.55,1.13,1.19.77,2.57,1.82,4.29,3.07-.18-.13-.38-.24-.57-.36.64.58,1.23,1.2,1.89,1.73.67.53,1.31,1.09,1.98,1.65.33.29.68.54,1.02.86.34.32.68.63,1.02.96l.51.48c.16.18.3.42.46.62.3.43.62.81.91,1.31.27.27.53.57.8.88.25.34.51.68.75,1.07h0s0,.16,0,.16c0,.04-.02.15.02.08l.16-.2c-.07.12-.15.29-.19.35,0-.06,0-.11,0-.14h0c-.17-.14-.34-.22-.49-.28-.16-.05-.28-.13-.45-.1-.33.02-.64.11-1.06.31-.04-.07-.08-.14-.12-.22-.04-.05-.09-.1-.14-.17-.1-.13-.21-.3-.33-.53-.12-.23-.26-.52-.4-.9-.07-.19-.15-.41-.23-.65-.04-.13-.08-.26-.12-.39-.04-.15-.12-.12-.18-.19l.12.11s.05.18.08.26l.14.61.29,1.17.3,1.11.15.53.08.27.08.4.6-.25c-.36.54-.27.78.16.72.49-.14,1.02-.15,1.52-.03h0c0,.05,0,.14.01.16l.18-.27c.12-.18.25-.37.37-.56.25-.37.51-.73.76-1.06l-1.3,2.81c-.05.07-.02-.02-.03-.05,0-.04,0-.08,0-.13h0c-.23-.1-.65-.03-1.03-.02-.55.25-1.16.55-1.69.81-.02-.24-.05-.47-.07-.7-.02-.15-.04-.3-.06-.44-.04-.29-.08-.57-.12-.83-.08-.52-.15-.98-.2-1.36-.12-.76-.19-1.18-.2-1.07.08.48.04-.14-.09-1.31-.02-.13-.03-.34-.06-.43-.04-.06-.09-.12-.14-.19-.1-.13-.2-.27-.32-.43-.23-.3-.48-.64-.76-1-.59-.79-1.07-1.28-1.62-1.88-.53-.58-1.11-1.1-1.63-1.47.03.38,3.95,4,1.82,2.77.39.26.81.71,1.13,1.06.32.35.58.67.85.99.13.16.26.33.4.5.09,0,.1.38.13.65.03.29.06.6.09.91.13,1.26.29,2.75.51,4.5-.48-3.18-.58-3.58-.68-3.58-.05-.02-.09.03-.15-.3-.03-.17-.07-.43-.12-.86-.01-.11-.02-.23-.04-.35,0-.06,0-.15-.02-.19l-.06-.05c-.08-.07-.18-.15-.28-.24l.29.31s.03.01.03.05v.15s.03.31.03.31l.04.61.16,2.43.35,5.15,1.2-1.18.59-.58.3-.29.14-.14.09-.07s-.03.07-.11.15c-.12.13-.3.33-.53.58-.46.49-1.09,1.18-1.77,1.9-.22-2.89-.46-6.06-.57-7.55-.12-1.34-.14-1.04-.06,4.15.06,1.39.14,3.16.24,5.23.75-.83,1.59-1.75,2.43-2.69.12-.14.17-.17.24-.23l.19-.17.39-.33.38-.33.3-.21h0s0,.09,0,.09c0,.01.11-.15.15-.22.12-.18.24-.36.35-.53.23-.35.43-.68.6-.95.36-.57.57-.98.57-1.14l.11.06c1.35-1.84,1.61-2.4,1.93-3.04.31-.68.7-1.25,2.46-3.06-.1-.19-.81.4-1.95,1.75-.47.61-.69,1.12-1.07,1.76-.38.65-.89,1.49-1.89,2.96-.92.74,2.39-3.28.9-2.12-.17.13-.53.6-.97,1.21-.22.31-.45.64-.68.99l-.35.52c-.05.06-.14.23-.14.2v-.12s0,0,0,0c-.96.26-2.79,1.9-1.35-.03.08-.05.18-.13.24-.16l.17-.05.33-.1.33-.11c.1-.02.19-.02.28-.04h0c-.08.36.21-.15.38-.37l.59-.81c.03-.75,1.66-2.95,1.52-3.26.33-.49.66-.91,1-1.33l1.09-1.1c.36-.38.73-.76,1.1-1.14.29-.29.56-.6.81-.95.17-.34-.05-.38-.04-.56.02-.17.23-.54,1.39-1.36.53-.24,1.19-.72,1.99-1.23.82-.5,1.7-1.14,2.61-1.75.94-.57,1.86-1.16,2.68-1.7.85-.48,1.6-.9,2.13-1.2.59-.39,1.15-.85,1.79-1.18-.3-.22-3.6,1.91-2.54.98.97-.54,1.92-1.13,2.96-1.56l-.17.24c1.03-.4,2.01-1,2.91-1.48-.86.68-3.11,1.52-2.5,1.7,1.47-.53,1.73-.51,3.03-1.1-.29.11-.51.28-.46.31,3.01-.85,2.73-1.39,3.44-1.78,2.9-1.51-3.21.53-2.98,0l2.23-.79c.74-.27,1.49-.54,2.26-.71l2.3-.59c.77-.19,1.53-.42,2.32-.52-.79.21-1.55.56-1.22.65,2.31-.21.1.28,3.3-.19-.15-.26.85-.49,2.18-.72,1.33-.14,2.99-.21,4.14-.43,1.08.19,1.3.23-1.05.32.14.18,1,.2,1.95.18.24,0,.49-.02.73-.02.24.01.48.02.71.03.46.03.86.05,1.14.07.65-.06,1.76-.05,2.46-.09-.93-.23-.52-.44,1.55-.48l.13-.07c-1.68-.16-3.83-.37-5.82-.56-2-.02-3.86.07-4.9.29l.59-.2c-.49-.02-1-.02-1.5,0-.5.06-1.01.14-1.51.22-1,.17-1.99.37-2.9.55-.92.15-1.75.44-2.48.59-.73.16-1.36.23-1.84.16.1-.3-.79.12-.82-.28-.47.14-.92.33-1.36.54l-1.34.6.52-.36-2.34.82c-.79.25-1.52.65-2.28.97l.09-.12c-1.01.65-1.93,1.15-2.68,1.73-.75.57-1.41,1.07-2,1.51.08.15.24.13-.38.6-.63.44-1.1.8-1.56,1.05h0s0,0,0,0c-1.02.6-1.86.77-3.09,1.59,1.18-.95,2.5-1.7,3.75-2.54.16-.45-.31-.51-2.33.53.77-.5.98-.91,0-.32-.03.07-.66.5-1.11.9-.45.41-.76.75-.25.52-1.54,1.17-3.58,2.56-5.63,4.39-1.14.99-1.8,1.65-2.6,2.51-.37.43-.75.85-1.1,1.33-.17.24-.36.47-.52.72l-.25.38-.12.2s0-.11-.02-.15h0c-.33-.45-.7-.87-1.09-1.28.84.9.83.82.67.47-.17-.35-.58-.92-.68-1.12-.04-.07-.04-.09,0-.05.07.06.31.32.78.92-.29-.55-.53-.9-.72-1.16-.43-.54-.73-.67-1.14-.93-.21-.13-.45-.28-.74-.52-.3-.24-.59-.54-1.18-1.11-.08-.18.36.22.76.61.37.37.83.81,1.14.9-.41-.46-.75-.86-1.19-1.29-.54-.5-1.07-.98-1.59-1.44-1.07-.89-2.15-1.67-3.23-2.41-2.22-1.43-4.44-2.74-7.07-4.23l-.05-.44c-1.05-.49-2.17-1.09-3.43-1.52Zm-11.49-3.16c-.56-.13-1.15-.18-1.73-.23-.58-.06-1.17-.11-1.76-.17.11.02.22.04.34.06l-1.73-.08c-.58-.03-1.15-.07-1.73-.02.53.04,1,.15,1.37.27.37.11.64.22.75.3.22.18-.18.26-1.64.18.26-.13-.58-.39.44-.38-1.95-.35-6.31-.69-5.17-.11,3.8-.38.86.74,3.83.46-1.61.3-3.16.07-4.66.19.77-.14.69-.3.11-.48-.58-.12-1.66-.19-2.84-.2-.51.07-1.46.13-2.5.19-1.04.04-2.14.27-2.98.43.65.26-.78.64,1.95.37-.99.23-2.52.44-4.26.65.67-.18,1.85-.47,1.75-.56-1.16-.1-2.47.17-3.22.19-.56.17-1.13.33-1.69.5.17-.02.33-.02.44,0-.6.27-1.21.5-1.78.81,2.43-.88,1.19-.17,1.2.01-.05-.43-1.59.43-2.41.72l1.92-.2c-.79.49-3.15.73-2.55.98.95-.29,1.76-.53,2.48-.75.73-.19,1.39-.36,2.03-.53.64-.19,1.27-.33,1.97-.48.7-.14,1.44-.37,2.34-.49-.5-.05-1-.08-1.5-.08,4.03-.83,2.56.1,7.14-.18,1.91-.56,6.9.04,7.03-.58-.3.1.42.2,1.39.39.97.21,2.21.39,3.01.36.45-.07,1.13-.11,1.85-.07.72.08,1.49.18,2.16.28,1.34.19,2.27.32,1.51.02-.7-.17-1.55-.28-2.35-.44-.8-.15-1.55-.36-2.1-.58l.7.06.69.13,1.38.26-1.75-.7c.91.32.88.02.53-.51Zm-56.38,24.04s-.04.07-.06.1l.06-.12h0Z"/>
  <path class="cls-1" d="m239.32,147.5c-.13.84-1.09,2.64-.64,2.41-.16-.05.24-.86.54-1.57.27-.72.48-1.31.1-.84Z"/>
  <path class="cls-1" d="m238.04,149.59c0,.16.16.12-.23.95l1.02-2.29-.79,1.35Z"/>
  <path class="cls-1" d="m234.96,150.92c-.36,1.23-.53,2.05-1.5,3.79-.54.13-.14-.57.24-1.52.4-.94.9-2.05.77-2.61-.84,1.6-1.17,2.76-1.57,3.79-.41,1.04-.76,2.02-1.48,3.33.51-.56,1.59-2.13,2.44-3.62.76-1.54,1.35-2.98,1.11-3.15Z"/>
  <polygon class="cls-1" points="234.78 149.05 234.06 150.93 234.19 150.77 234.91 148.89 234.78 149.05"/>
  <path class="cls-1" d="m247.61,105.88c.08-.11.02-.43-.11-.81-.08-.19-.16-.39-.24-.6l-.13-.31-.06-.15s-.02-.03-.03-.05c-.02-.03-.05-.06-.06-.09,0,.03.01.06.02.1.03.11.07.23.1.36.05.16.1.32.15.49.12.34.23.69.38,1.05Z"/>
  <path class="cls-1" d="m171.33,224.24l11.97-10.11c-3.44,2.91-6.62,5.6-11.97,10.11Z"/>
  <path class="cls-1" d="m212.32,66.94c1.1.21,2.03.44,2.9.66.44.1.85.2,1.26.3.4.12.8.24,1.19.36.79.24,1.59.47,2.43.84.85.34,1.78.72,2.79,1.29-1.26-.89-2.44-1.4-3.46-1.87-1.05-.4-2-.68-2.91-.93-.93-.21-1.82-.41-2.77-.68-.97-.21-1.99-.52-3.19-.92.6.29,1.18.64,1.76.95Z"/>
  <path class="cls-1" d="m214.4,65.49c.61.61-3.59-.4-3.01.1,3,.7,1.52-.13,4.19.79l-1.17-.89Z"/>
  <polygon class="cls-1" points="227.28 81.57 226.26 80.94 227.01 81.53 227.28 81.57"/>
  <path class="cls-1" d="m193.85,63.79l.49-.12-2.27-.05c.59.04,1.19.11,1.78.17Z"/>
  <path class="cls-1" d="m194.83,63.54l-.49.13.49-.13Z"/>
  <path class="cls-1" d="m225.52,81.27l1.18,1.24c.25.14.49.31.74.46-.6-.61-1.29-1.13-1.92-1.7Z"/>
  <path class="cls-1" d="m213.26,71.54l1.6.38c-.32-.07-2.39-.96-1.6-.38Z"/>
  <polygon class="cls-1" points="180.17 66 178.1 66.86 178.33 66.83 180.4 65.97 180.17 66"/>
  <path class="cls-1" d="m200.55,70.73c1.1.41-3.23-.08-.94.36,2.04.06,1.22-.17.94-.36Z"/>
  <path class="cls-1" d="m176.51,72.4c-.25.11-.52.23-.76.38.3-.15.55-.28.76-.38Z"/>
  <path class="cls-1" d="m176.51,72.4c.83-.34,1.68-.6,2.22-.88-1.1.23-1.44.49-2.22.88Z"/>
  <path class="cls-1" d="m167.63,77.38c.22-.16.44-.3.68-.44-.59.59-.28.35.26-.15.72-.47.61-.54.66-.65.12-.13.24-.26.37-.4-.2.18-.38.35-.53.48-1.14.69-1.77,1.19-1.44,1.16Z"/>
  <path class="cls-1" d="m141.89,68.38c2.91,1.64,3.57,2.22,3.27,2.35,2.6,1.76,2.48,1.07,4.08,2.12-1.44-1.08-2.39-1.6-3.36-2.26-.5-.31-.99-.67-1.63-1.01-.65-.33-1.41-.72-2.36-1.21Z"/>
  <path class="cls-1" d="m149.24,72.85c.33.23.64.46,1.02.73-.42-.32-.73-.54-1.02-.73Z"/>
  <polygon class="cls-1" points="179.2 74.59 177.77 75.67 178.33 75.36 179.2 74.59"/>
  <path class="cls-1" d="m137.43,66.2c.56.26,1.48.64,1.89.92.28-.18-2.46-1.18-1.89-.92Z"/>
  <path class="cls-1" d="m145.65,76.73c.14.33,1.78,1.37,2.34,1.92-.85-.73-1.32-1.66-2.34-1.92Z"/>
  <path class="cls-1" d="m128.05,64.52c.59.15,1.45.54,1,.67.88.07,2.16-.14-1-.67Z"/>
  <path class="cls-1" d="m140.99,73.77l.34.28c.65.25,1.25.6,1.87.91l-1.08-.63c-.36-.2-.75-.37-1.12-.56Z"/>
  <path class="cls-1" d="m144.71,81.01c1.94,1.03-2.3-2.67.89-.67-3.72-3.15.04.56-2.83-1.54,1.66,1.27,2.19,2.24,1.95,2.21Z"/>
  <path class="cls-1" d="m142.76,78.8c-.25-.18-.52-.36-.82-.55.33.22.59.4.82.55Z"/>
  <path class="cls-1" d="m113.62,68.65c.33-.05.56-.1.76-.15-.26.04-.51.09-.76.15Z"/>
  <path class="cls-1" d="m132.55,73.94c.55.07,1.07.21,1.6.36l1.6.42c-.54-.14-1.25-.38-2.02-.65-.76-.29-1.63-.46-2.4-.68-.77-.2-1.47-.38-1.96-.46-.49-.09-.79-.03-.74.1,1.66.57,3.68,1.15,4.59,1.21-.22-.11-.44-.19-.67-.29Z"/>
  <path class="cls-1" d="m92.51,66.41l1.5-.82c-.66.26-1.34.48-1.99.78.58-.2-.27.61.49.05Z"/>
  <path class="cls-1" d="m91.65,66.53l.38-.17c-.09.03-.21.08-.38.17Z"/>
  <path class="cls-1" d="m120.09,68.59c1.09.18,1.97.28,2.98.33-.4-.15-3.13-.6-2.98-.33Z"/>
  <path class="cls-1" d="m82.75,73.25c.68-.63,1.43-1.18,2.15-1.76-.81.61-1.62,1.21-2.38,1.88l.22-.13Z"/>
  <path class="cls-1" d="m73.38,82.18l-.35.34c-.39.66-.75,1.34-1.12,2.01l.34-.36c.37-.67.72-1.34,1.13-1.99Z"/>
  <path class="cls-1" d="m90.87,78.14c.65-.38,1.15-.84,1.46-1.17.32-.31.43-.52.23-.47-.86.49-1.66,1.06-2.48,1.61.83-.11.67-.47,2.17-1.31l-1.38,1.33Z"/>
  <path class="cls-1" d="m80.5,168.21c-.64-.48-2.59-3.62-2.49-3.91.37.35,1.57,1.95,1,.83l-1.08-1.04-1.01-1.1c-.81-1.79-.26-1.25.63-.08.22.3.47.63.72.97.27.33.55.67.82,1,.54.65,1.04,1.26,1.35,1.63-2.19-3.26-3.02-4.13-5.16-7.76.57,1.1.83,1.86,1.05,2.5-.15.18-.69-.62-1.36-1.75-.66-1.15-1.53-2.59-2.12-3.89.62,1.71.02.85-.71-.26-.12-.21-.21-.34-.28-.43-.09-.13-.17-.25-.25-.38l.15.31c-.06,0-.08.1-.04.35,1.11,2.13,1.77,3.83,2.53,5.18-.07-.83.62.28,1.48,1.79.42.76.9,1.61,1.33,2.38.47.74.92,1.37,1.23,1.74l1.3,1.79.47.68c.03.18-.19.04-1.01-.92.71.79,2.65,3.73,2.65,3.32.72,1.13,1.57,2.15,2.38,3.2l2.46,3.13c.13.21.25.43.33.61.21.19.26.2.27.15l1.34,1.7c.38.51,1.08,1.29,1.58,1.82,1.07,1.14,2.11,2.17,3.16,3.17,2.09,2.01,4.17,3.92,6.28,5.81,2.13,1.89,4.19,3.75,6.45,5.62l6.47,5.31c-1.24-1.09-2.24-2.13-3.5-3.27,2.28,1.26-2.1-1.84-1.23-1.71.99.6,2.26,1.71,2.96,2.43.43.06-.54-1-.23-1.11-1.54-1.45-2.61-2.07-3.68-2.67-.27-.15-.53-.3-.81-.46-.29-.18-.59-.37-.89-.59-.59-.42-1.24-.93-2-1.65.31-.1,1.43.58-.64-1.2l.56.42c-3.47-2.68-2.13-2.73-4.67-4.02l.32-.24c-1.67-1.12-4.5-3.77-6.13-5.34l.15.04c-1.2-1.05-1.95-1.76-2.54-2.39-.57-.6-.79-.92-1.1-1.32-.59-.77-1.21-1.63-3.44-4.31l2.34,2.24c-1.33-2-2.06-2.12-3.08-3.51.14.05.12-.44,1.18.8l-1.44-1.55-.72-.78-.67-.82-2.68-3.31c-1.39-1.51-.01.5.03.86Z"/>
  <path class="cls-1" d="m75.29,158.74c-.21-.4-.46-.85-.77-1.37.29.51.54.95.77,1.37Z"/>
  <path class="cls-1" d="m114.22,203.19l-1.82-1.49c.55.48,1.13.97,1.82,1.49Z"/>
  <path class="cls-1" d="m69.09,148.06c.37,1.48-.68-.94-.92-1.13.67,1.68,1.31,3.37,2.14,4.96.13-.09.51.32.59.16l-.97-1.96c-.31-.66-.56-1.36-.85-2.03Z"/>
  <path class="cls-1" d="m70.74,153.42c.18.12.51.59.87,1.13l-1.29-2.65c-.1.06-.05.41.42,1.53Z"/>
  <polygon class="cls-1" points="77.83 149.42 78.23 150.2 78.92 151.35 77.83 149.42"/>
  <path class="cls-1" d="m84,161.86c-.45-.98-1.57-2.65-1.97-3.2.59,1,.74,1.3.9,1.6.16.31.33.62,1.07,1.6Z"/>
  <path class="cls-1" d="m84.59,158.13c.41.6.78,1.24,1.25,1.81l-.08-.19c-.44-.51-.78-1.08-1.17-1.61Z"/>
  <path class="cls-1" d="m128.64,213.05c.29.23.58.45.88.69-.39-.32-.66-.53-.88-.69Z"/>
  <path class="cls-1" d="m113.32,200.92c3.91,3.79-2.98-1.98-2.03-.46l2.4,1.73-.29-.04,2.81,2.25c-.4-.67-.82-1.04-.52-1.14,3.65,3.14.96,1.21,3.47,3.72l4.18,3.38-.39-.21c.35.28.53.38.68.45l14.1,11.39c2.68,1.93-1.09-1.54,1.04-.3-2.95-2.43-7.15-6.26-7.75-6.05.15.02.44.07-.12-.47l-1.99-1.06,1.54,1.45c-2-1.07-7.48-5.71-8.3-6.75,3.25,2.48,2.01.76,6.21,4.6-.11-.27-.76-1.12.28-.36-5.24-4.11-9.69-8.1-15.32-12.13Z"/>
  <path class="cls-1" d="m170.26,224.57v.07c.07-.1.08-.14,0-.07Z"/>
  <path class="cls-1" d="m168.49,225.93l-2.17,2.47,3.89-3.24.05-.52c-.29.36-1.54,1.63-2.16,1.95l.4-.66Z"/>
  <path class="cls-1" d="m163.61,231.04c1.92-1.78,1.53-2.03.3-1.28,1.73-1.68,1.28-.44,2.26-1.84-.24-.21-2.41,1.81-2.9,2.28l.34.84Z"/>
  <polygon class="cls-1" points="142.68 225.49 143.36 225.81 142 224.62 142.68 225.49"/>
  <path class="cls-1" d="m143.36,225.81l1.36,1.18c0-.18-.02-.36-.19-.62l-1.17-.56Z"/>
  <path class="cls-1" d="m148.28,230.09c.29.25.59.52.91.81.52.44,1.09.92,1.71,1.44l-2.62-2.25Z"/>
  <path class="cls-1" d="m146.76,228.7v.08s1.52,1.31,1.52,1.31c-.54-.5-1.03-.95-1.52-1.39Z"/>
  <path class="cls-1" d="m144.72,227c.03.42.08.89,2.15,2.48l-.09-.69-2.06-1.79Z"/>
  <polygon class="cls-1" points="93.47 171.53 94.84 172.99 94.75 172.8 93.38 171.33 93.47 171.53"/>
  <path class="cls-1" d="m100.91,180.08c.4.3.72.52,1.01.71-.41-.33-.75-.58-1.01-.71Z"/>
  <path class="cls-1" d="m108.76,184.37c1.58,1.81-2.73-1.87.48,1.16.1.48-1.7-.61-3.15-2.11.31-.09,1.63,1.22.86.16-1.24-.69-1.48-1.2-1.4-.57-1.89-1.37-2.28-1.33-3.62-2.21,2.15,1.77,6.33,6.09,9.32,7.95,1.85.89,1.36-.4,1.82-.94-.03-.08-.31-.35-.68-.7-.34-.32-.82-.75-1.33-1.19-1.01-.86-2.06-1.66-2.29-1.55Z"/>
  <path class="cls-1" d="m106.45,181.34c-.79-.76-1.05-.97-1.59-1.38-.03.3.92.79,1.59,1.38Z"/>
  <path class="cls-1" d="m122.46,201.87c.23.06,1.87,1.25,1.65.84l-2.45-1.85c.54.47.66.73.8,1.02Z"/>
  <path class="cls-1" d="m120.59,200.04l1.07.81c-.25-.22-.58-.47-1.07-.81Z"/>
  <path class="cls-1" d="m122.53,202.02s-.05-.09-.07-.14c-.05-.01-.05.01.07.14Z"/>
  <path class="cls-1" d="m157.47,235.99c-.04.29,1.86-1.42,2.78-2.25-.78.62-1.87,1.42-2.78,2.25Z"/>
  <path class="cls-1" d="m199.36,200.67l1.03-.65c-.39.2-.59.3-1.03.65Z"/>
  <path class="cls-1" d="m210.05,184.52c0-.05.04-.13.11-.24-.07.1-.11.18-.11.24Z"/>
  <path class="cls-1" d="m210.16,184.28c.5-.67,2.53-2.2,3.02-3.01l-.03.13,1.12-1.27c-1.12,1.11-3.59,3.35-4.11,4.15Z"/>
</svg>